<?xml version="1.0" encoding="UTF-8" standalone="no"?>
<!DOCTYPE svg PUBLIC "-//W3C//DTD SVG 1.1//EN" "http://www.w3.org/Graphics/SVG/1.1/DTD/svg11.dtd">
<svg width="100%" height="100%" viewBox="0 0 3508 2481" version="1.1" xmlns="http://www.w3.org/2000/svg" xmlns:xlink="http://www.w3.org/1999/xlink" xml:space="preserve" xmlns:serif="http://www.serif.com/" style="fill-rule:evenodd;clip-rule:evenodd;stroke-linecap:round;stroke-linejoin:round;stroke-miterlimit:1.5;">
    <use xlink:href="#_Image1" x="1252.58" y="191.106" width="295.747px" height="296.828px" transform="matrix(0.999145,0,0,0.999419,0,0)"/>
    <g transform="matrix(1.23031,0,0,1.23483,-321.45,-804.861)">
        <circle cx="1392" cy="920" r="120" style="fill:rgb(52,73,94);"/>
    </g>
    <use xlink:href="#_Image2" x="1317.49" y="225.888" width="160.402px" height="160.402px" transform="matrix(0.996288,0,0,0.996288,0,0)"/>
    <g transform="matrix(0.960947,0,0,0.960947,-1534.35,-60.0184)">
        <circle cx="3043.6" cy="377.597" r="77.597" style="fill:rgb(225,224,209);stroke:rgb(22,160,133);stroke-width:10.84px;"/>
    </g>
    <use xlink:href="#_Image3" x="1279.43" y="284.865" width="160.387px" height="160.387px" transform="matrix(0.99619,0,0,0.99619,0,0)"/>
    <g transform="matrix(0.960947,0,0,0.960947,-1572.4,-1.28827)">
        <circle cx="3043.6" cy="377.597" r="77.597" style="fill:rgb(225,224,209);fill-opacity:0.796078;stroke:rgb(41,128,185);stroke-width:10.84px;"/>
    </g>
    <use xlink:href="#_Image4" x="1354.28" y="284.865" width="160.387px" height="160.387px" transform="matrix(0.99619,0,0,0.99619,0,0)"/>
    <g transform="matrix(0.960947,0,0,0.960947,-1497.83,-1.28827)">
        <circle cx="3043.6" cy="377.597" r="77.597" style="fill:rgb(225,224,209);fill-opacity:0.694118;stroke:rgb(201,93,93);stroke-width:10.84px;"/>
    </g>
</svg>
