<?xml version="1.0" encoding="UTF-8" standalone="no"?>
<!DOCTYPE svg PUBLIC "-//W3C//DTD SVG 1.1//EN" "http://www.w3.org/Graphics/SVG/1.1/DTD/svg11.dtd">
<svg width="100%" height="100%" viewBox="0 0 3508 2481" version="1.1" xmlns="http://www.w3.org/2000/svg" xmlns:xlink="http://www.w3.org/1999/xlink" xml:space="preserve" xmlns:serif="http://www.serif.com/" style="fill-rule:evenodd;clip-rule:evenodd;stroke-linecap:round;stroke-linejoin:round;stroke-miterlimit:1.5;">
    <use xlink:href="#_Image1" x="1974.68" y="191.106" width="295.747px" height="296.828px" transform="matrix(0.999145,0,0,0.999419,0,0)"/>
    <g transform="matrix(1.23031,0,0,1.23483,400.039,-804.861)">
        <circle cx="1392" cy="920" r="120" style="fill:rgb(52,73,94);"/>
    </g>
    <g transform="matrix(0.161662,-0.130541,0.172883,0.198318,1857.96,183.642)">
        <path d="M805.036,1146.65L459.805,748.08L805.036,1146.65Z" style="fill:rgb(173,191,210);fill-opacity:0.6;stroke:rgb(225,224,209);stroke-width:60.42px;"/>
    </g>
    <g transform="matrix(-0.243514,0.196636,0.847348,0.972011,1438.1,-704.519)">
        <path d="M727.577,992.532L548.863,893.58L727.577,992.532Z" style="fill:rgb(173,191,210);fill-opacity:0.6;stroke:rgb(225,224,209);stroke-width:15.68px;"/>
    </g>
    <use xlink:href="#_Image5" x="2073.21" y="366.69" width="80.746px" height="77.927px" transform="matrix(0.996862,0,0,0.999068,0,0)"/>
    <g transform="matrix(0.808954,0,0,0.778571,395.864,-216.442)">
        <circle cx="2109" cy="796" r="42" style="fill:rgb(225,224,209);stroke:rgb(22,160,133);stroke-width:15.74px;"/>
    </g>
    <use xlink:href="#_Image6" x="2032.76" y="235.218" width="80.746px" height="80.49px" transform="matrix(0.996862,0,0,0.993706,0,0)"/>
    <g transform="matrix(0.808954,0,0,0.808954,355.537,-371.951)">
        <circle cx="2109" cy="796" r="42" style="fill:rgb(225,224,209);stroke:rgb(201,93,93);stroke-width:15.45px;"/>
    </g>
    <use xlink:href="#_Image7" x="2156.31" y="269.409" width="80.803px" height="80.49px" transform="matrix(0.997569,0,0,0.993706,0,0)"/>
    <g transform="matrix(0.809677,0,0,0.808954,478.727,-337.975)">
        <circle cx="2109" cy="796" r="42" style="fill:rgb(225,224,209);stroke:rgb(41,128,185);stroke-width:15.45px;"/>
    </g>

</svg>