<?xml version="1.0" encoding="UTF-8" standalone="no"?>
<!DOCTYPE svg PUBLIC "-//W3C//DTD SVG 1.1//EN" "http://www.w3.org/Graphics/SVG/1.1/DTD/svg11.dtd">
<svg width="100%" height="100%" viewBox="0 0 736 876" version="1.1" xmlns="http://www.w3.org/2000/svg" xmlns:xlink="http://www.w3.org/1999/xlink" xml:space="preserve" xmlns:serif="http://www.serif.com/" style="fill-rule:evenodd;clip-rule:evenodd;stroke-linejoin:round;stroke-miterlimit:1.41421;">
    <g transform="matrix(1,0,0,1,-74.9667,0)">
        <g id="path4" transform="matrix(1.20416,0,0,1.20416,-81.5743,-158.293)">
            <path d="M562.305,328.826C530.644,291.595 484.241,270.142 435.374,270.142C343.405,270.142 268.738,344.823 268.738,436.81C268.738,528.797 343.405,603.479 435.374,603.479C474.934,603.479 513.204,589.402 543.338,563.766L479.072,488.195C466.876,498.571 451.386,504.268 435.374,504.268C398.15,504.268 367.929,474.041 367.929,436.81C367.929,399.579 398.15,369.352 435.374,369.352C455.153,369.352 473.934,378.035 486.749,393.104L562.305,328.826Z" style="fill:rgb(22,160,133);"/>
        </g>
        <g id="rect6" transform="matrix(1.20416,0,0,1.20416,-81.5743,-158.293)">
            <rect x="130" y="436" width="139" height="422.932" style="fill:rgb(42,62,80);"/>
        </g>
        <g id="path8" transform="matrix(1.20416,0,0,1.20416,-81.5743,-158.293)">
            <path d="M297.36,708.985C340.117,730.656 387.377,741.949 435.31,741.949C603.748,741.949 740.497,605.172 740.497,436.702C740.497,268.231 603.748,131.455 435.31,131.455C266.76,131.455 130.123,268.119 130.123,436.702L269.019,436.702C269.019,344.844 343.47,270.378 435.31,270.378C527.089,270.378 601.601,344.905 601.601,436.702C601.601,528.498 527.089,603.025 435.31,603.025C409.192,603.025 383.441,596.872 360.144,585.064L297.36,708.985Z" style="fill:rgb(42,62,80);"/>
        </g>
        <g id="rect3712" transform="matrix(1.20416,0,0,1.20416,-81.5743,-158.293)">
            <rect x="131.234" y="421.93" width="104.987" height="81.365" style="fill:rgb(42,62,80);stroke:rgb(42,62,80);stroke-width:1px;"/>
        </g>
        <g id="rect3714" transform="matrix(1.20416,0,0,1.20416,-81.5743,-158.293)">
            <rect x="196.851" y="403.557" width="68.242" height="125.985" style="fill:rgb(42,62,80);stroke:rgb(42,62,80);stroke-width:1px;"/>
        </g>
    </g>
</svg>
